# Blender v2.80 (sub 75) OBJ File: ''
# www.blender.org
mtllib BisMerah.mtl
o Body_Cube
v 2.000000 2.131758 -0.942461
v 2.000000 0.710613 -0.942461
v 2.000000 2.131758 0.942461
v 2.000000 0.710613 0.942461
v -1.875744 2.286484 -1.000000
v -2.000000 -1.000000 -1.000000
v -1.873935 2.285587 1.000000
v -2.000000 -1.000000 1.000000
v 1.636311 2.302456 -1.000000
v 1.759721 -1.000000 1.000000
v 1.654088 2.311424 1.000000
v 1.759721 -1.000000 -1.000000
v 2.000000 2.192856 -1.000000
v 2.000000 -1.000000 -1.000000
v 2.000000 2.192856 1.000000
v 2.000000 -1.000000 1.000000
v 2.000000 1.001980 -1.000000
v -1.873935 1.300068 1.000000
v 2.000000 1.001980 1.000000
v -1.875744 1.299158 -1.000000
v 1.636311 1.308486 -1.000000
v 1.654088 1.299647 1.000000
v 2.000000 1.601697 -0.942461
v 2.000000 1.601697 0.942461
v -0.943163 2.296965 -1.000000
v -1.054715 -1.000000 1.000000
v -1.054715 -1.000000 -1.000000
v -0.929511 2.290199 1.000000
v -0.943163 1.295396 -1.000000
v -0.929511 1.302259 1.000000
v 0.476166 2.297320 -1.000000
v 0.352755 -1.000000 1.000000
v 0.476166 1.305265 -1.000000
v 0.227551 1.305472 1.000000
v 0.352755 -1.000000 -1.000000
v 0.227552 2.295322 1.000000
v 0.458389 2.306130 1.000000
v -1.180780 2.288656 1.000000
v -1.180780 1.301992 1.000000
v 0.458389 1.296327 1.000000
v 1.759721 2.583822 1.000000
v 1.759721 1.247123 1.000000
v 0.352755 1.243217 1.000000
v 0.352755 2.577592 1.000000
v -2.000000 1.346715 0.889970
v -2.000000 2.238034 0.889970
v -1.054715 2.571360 1.000000
v -1.054715 1.239309 1.000000
v 0.241203 2.302209 -1.000000
v 1.759721 2.583822 -1.000000
v 1.759721 1.247123 -1.000000
v 0.241203 1.298684 -1.000000
v -1.178971 2.289569 -1.000000
v -1.178971 1.301093 -1.000000
v 0.352755 2.577592 -1.000000
v 0.352755 1.243217 -1.000000
v -2.000000 2.238034 -0.889970
v -2.000000 1.346715 -0.889970
v -1.054715 2.571360 -1.000000
v -1.054715 1.239309 -1.000000
v -2.000000 1.236685 1.000000
v -2.000000 2.567175 1.000000
v -2.000000 2.567175 -1.000000
v -2.000000 1.236685 -1.000000
vt 0.781755 0.734983
vt 0.875000 0.734983
vt 0.875000 0.750000
vt 0.781755 0.750000
vt 0.522047 0.750000
vt 0.609983 0.750000
vt 0.609983 1.000000
vt 0.522047 1.000000
vt 0.531755 0.440920
vt 0.531755 0.500000
vt 0.375000 0.500000
vt 0.375000 0.440920
vt 0.625000 0.750000
vt 0.625000 1.000000
vt 0.565920 0.000000
vt 0.625000 0.000000
vt 0.625000 0.250000
vt 0.565920 0.250000
vt 0.531755 0.250000
vt 0.531755 0.265017
vt 0.375000 0.265017
vt 0.375000 0.250000
vt 0.375000 0.000000
vt 0.390017 0.000000
vt 0.390017 0.250000
vt 0.375000 0.250000
vt 0.277351 0.527671
vt 0.142333 0.527671
vt 0.125000 0.500000
vt 0.281755 0.500000
vt 0.277351 0.722329
vt 0.357667 0.722329
vt 0.375000 0.750000
vt 0.281755 0.750000
vt 0.357667 0.527671
vt 0.375000 0.500000
vt 0.142333 0.722329
vt 0.125000 0.750000
vt 0.625000 0.647047
vt 0.781755 0.647047
vt 0.625000 0.734983
vt 0.625000 0.250000
vt 0.625000 0.265017
vt 0.531755 0.750000
vt 0.375000 0.750000
vt 0.625000 0.500000
vt 0.781755 0.500000
vt 0.781755 0.559080
vt 0.625000 0.559080
vt 0.477953 0.000000
vt 0.477953 0.250000
vt 0.531755 0.352953
vt 0.375000 0.352953
vt 0.434080 0.750000
vt 0.434080 1.000000
vt 0.375000 1.000000
vt 0.620619 0.433094
vt 0.620623 0.360778
vt 0.625000 0.352953
vt 0.625000 0.440920
vt 0.536135 0.433094
vt 0.536131 0.360778
vt 0.621314 0.271619
vt 0.535441 0.271619
vt 0.535444 0.346351
vt 0.621311 0.346351
vt 0.536171 0.492121
vt 0.620584 0.492121
vt 0.625000 0.500000
vt 0.620586 0.448799
vt 0.536169 0.448799
vt 0.870694 0.727269
vt 0.870690 0.654760
vt 0.875000 0.647047
vt 0.786061 0.727269
vt 0.786065 0.654760
vt 0.871097 0.566052
vt 0.785657 0.566052
vt 0.875000 0.559080
vt 0.871101 0.640075
vt 0.785654 0.640075
vt 0.870647 0.507766
vt 0.786107 0.507766
vt 0.875000 0.500000
vt 0.870649 0.551314
vt 0.786105 0.551314
vt 0.617289 0.513754
vt 0.539466 0.513754
vt 0.617289 0.736246
vt 0.625000 0.750000
vt 0.539466 0.736246
vn 0.0000 0.0000 -1.0000
vn 0.0000 -1.0000 0.0000
vn 0.0000 0.0000 1.0000
vn -0.0044 1.0000 0.0000
vn 0.8520 0.5236 0.0000
vn 1.0000 0.0000 0.0000
vn -1.0000 0.0000 0.0000
usemtl BodyRed
s off
f 51/1/1 50/2/1 13/3/1 17/4/1
f 35/5/2 12/6/2 10/7/2 32/8/2
f 48/9/3 61/10/3 8/11/3 26/12/3
f 12/6/2 14/13/2 16/14/2 10/7/2
f 59/15/4 63/16/4 62/17/4 47/18/4
f 19/19/3 42/20/3 10/21/3 16/22/3
f 13/23/5 50/24/5 41/25/5 15/26/5
f 23/27/6 2/28/6 14/29/6 17/30/6
f 24/31/6 3/32/6 15/33/6 19/34/6
f 3/32/6 1/35/6 13/36/6 15/33/6
f 2/28/6 4/37/6 16/38/6 14/29/6
f 4/37/6 24/31/6 19/34/6 16/38/6
f 1/35/6 23/27/6 17/30/6 13/36/6
f 35/39/1 56/40/1 51/1/1 12/41/1
f 15/42/3 41/43/3 42/20/3 19/19/3
f 8/11/7 61/10/7 64/44/7 6/45/7
f 12/41/1 51/1/1 17/4/1 14/13/1
f 6/46/1 64/47/1 60/48/1 27/49/1
f 55/50/4 59/15/4 47/18/4 44/51/4
f 43/52/3 48/9/3 26/12/3 32/53/3
f 6/45/2 27/54/2 26/55/2 8/56/2
f 42/20/3 43/52/3 32/53/3 10/21/3
f 50/24/4 55/50/4 44/51/4 41/25/4
f 27/49/1 60/48/1 56/40/1 35/39/1
f 27/54/2 35/5/2 32/8/2 26/55/2
f 28/57/3 36/58/3 44/59/3 47/60/3
f 30/61/3 28/57/3 47/60/3 48/9/3
f 34/62/3 30/61/3 48/9/3 43/52/3
f 36/58/3 34/62/3 43/52/3 44/59/3
f 11/63/3 22/64/3 42/20/3 41/43/3
f 22/64/3 40/65/3 43/52/3 42/20/3
f 37/66/3 11/63/3 41/43/3 44/59/3
f 40/65/3 37/66/3 44/59/3 43/52/3
f 18/67/3 7/68/3 62/69/3 61/10/3
f 7/68/3 38/70/3 47/60/3 62/69/3
f 39/71/3 18/67/3 61/10/3 48/9/3
f 38/70/3 39/71/3 48/9/3 47/60/3
f 9/72/1 31/73/1 55/74/1 50/2/1
f 21/75/1 9/72/1 50/2/1 51/1/1
f 33/76/1 21/75/1 51/1/1 56/40/1
f 31/73/1 33/76/1 56/40/1 55/74/1
f 25/77/1 29/78/1 60/48/1 59/79/1
f 49/80/1 25/77/1 59/79/1 55/74/1
f 29/78/1 52/81/1 56/40/1 60/48/1
f 52/81/1 49/80/1 55/74/1 56/40/1
f 5/82/1 20/83/1 64/47/1 63/84/1
f 53/85/1 5/82/1 63/84/1 59/79/1
f 20/83/1 54/86/1 60/48/1 64/47/1
f 54/86/1 53/85/1 59/79/1 60/48/1
f 46/87/7 45/88/7 61/10/7 62/69/7
f 57/89/7 46/87/7 62/69/7 63/90/7
f 58/91/7 57/89/7 63/90/7 64/44/7
f 45/88/7 58/91/7 64/44/7 61/10/7
usemtl Glass
f 45/88/7 46/87/7 57/89/7 58/91/7
f 23/27/6 1/35/6 3/32/6 24/31/6
f 33/76/1 31/73/1 9/72/1 21/75/1
f 38/70/3 7/68/3 18/67/3 39/71/3
f 2/28/6 23/27/6 24/31/6 4/37/6
f 36/58/3 28/57/3 30/61/3 34/62/3
f 20/83/1 5/82/1 53/85/1 54/86/1
f 11/63/3 37/66/3 40/65/3 22/64/3
f 29/78/1 25/77/1 49/80/1 52/81/1
