# Blender v2.80 (sub 75) OBJ File: ''
# www.blender.org
mtllib MobilMerah.mtl
o Body_Cube
v 2.000000 0.137458 -1.000000
v 2.000000 -1.000000 -1.000000
v 2.000000 0.137458 1.000000
v 2.000000 -1.000000 1.000000
v -2.000000 0.308924 -1.000000
v -2.000000 -1.000000 -1.000000
v -2.000000 0.308924 1.000000
v -2.000000 -1.000000 1.000000
v 0.958822 -1.000000 -1.000000
v 0.890299 0.312075 0.914570
v 0.958822 -1.000000 1.000000
v 0.890299 0.312075 -0.914570
v 0.287958 -1.000000 -1.000000
v 0.356481 0.921741 0.914570
v 0.287958 -1.000000 1.000000
v 0.356481 0.921741 -0.914570
v -0.793804 -1.000000 -1.000000
v -0.793804 1.000000 1.000000
v -0.793805 -1.000000 1.000000
v -0.793805 1.000000 -1.000000
v -1.202826 -1.000000 -1.000000
v -1.202826 0.308924 1.000000
v -1.202826 -1.000000 1.000000
v -1.202826 0.308924 -1.000000
v 0.287958 1.000000 -1.000000
v 0.958822 0.233815 -1.000000
v 0.958822 0.233815 1.000000
v 0.287958 1.000000 1.000000
vt 0.568679 0.000000
vt 0.625000 0.000000
vt 0.625000 0.250000
vt 0.568679 0.250000
vt 0.375000 0.443679
vt 0.625000 0.443679
vt 0.625000 0.500000
vt 0.375000 0.500000
vt 0.625000 0.750000
vt 0.375000 0.750000
vt 0.566423 0.750000
vt 0.625000 0.750000
vt 0.625000 1.000000
vt 0.566423 1.000000
vt 0.125000 0.500000
vt 0.375000 0.500000
vt 0.375000 0.750000
vt 0.125000 0.750000
vt 0.625000 0.691423
vt 0.875000 0.691423
vt 0.875000 0.750000
vt 0.625000 0.661646
vt 0.875000 0.661646
vt 0.536646 0.750000
vt 0.536646 1.000000
vt 0.375000 0.250000
vt 0.625000 0.250000
vt 0.625000 0.308577
vt 0.375000 0.308577
vt 0.375000 0.000000
vt 0.433577 0.000000
vt 0.433577 0.250000
vt 0.375000 0.250000
vt 0.460218 0.750000
vt 0.460219 1.000000
vt 0.625000 0.585219
vt 0.875000 0.585218
vt 0.625000 0.338354
vt 0.375000 0.338354
vt 0.625000 0.556321
vt 0.875000 0.556321
vt 0.431321 0.750000
vt 0.431321 1.000000
vt 0.625000 0.414782
vt 0.375000 0.414781
vt 0.463354 0.000000
vt 0.539782 0.000000
vt 0.539782 0.250000
vt 0.463354 0.250000
vt 0.375000 1.000000
vt 0.625000 0.500000
vt 0.875000 0.500000
vt 0.460313 0.010679
vt 0.436619 0.010679
vt 0.436619 0.239321
vt 0.460313 0.239321
vn 0.0000 1.0000 0.0000
vn 0.0000 0.0000 1.0000
vn -1.0000 0.0000 0.0000
vn 0.0000 -1.0000 0.0000
vn 1.0000 0.0000 0.0000
vn 0.0000 0.0000 -1.0000
vn 0.0922 0.9957 0.0000
vn -0.8606 0.5093 0.0000
vn 0.7524 0.6588 0.0000
usemtl BodyRed
s off
f 24/1/1 5/2/1 7/3/1 22/4/1
f 23/5/2 22/6/2 7/7/2 8/8/2
f 8/8/3 7/7/3 5/9/3 6/10/3
f 9/11/4 2/12/4 4/13/4 11/14/4
f 2/15/5 1/16/5 3/17/5 4/18/5
f 9/19/6 26/20/6 1/21/6 2/12/6
f 13/22/6 25/23/6 26/20/6 9/19/6
f 13/24/4 9/11/4 11/14/4 15/25/4
f 4/26/2 3/27/2 27/28/2 11/29/2
f 1/30/7 26/31/7 27/32/7 3/33/7
f 17/34/4 13/24/4 15/25/4 19/35/4
f 17/36/6 20/37/6 25/23/6 13/22/6
f 11/29/2 27/28/2 28/38/2 15/39/2
f 21/40/6 24/41/6 20/37/6 17/36/6
f 21/42/4 17/34/4 19/35/4 23/43/4
f 15/39/2 28/38/2 18/44/2 19/45/2
f 25/46/1 20/47/1 18/48/1 28/49/1
f 6/10/4 21/42/4 23/43/4 8/50/4
f 6/51/6 5/52/6 24/41/6 21/40/6
f 19/45/2 18/44/2 22/6/2 23/5/2
f 20/47/8 24/1/8 22/4/8 18/48/8
f 16/53/9 12/54/9 26/31/9 25/46/9
f 12/54/9 10/55/9 27/32/9 26/31/9
f 10/55/9 14/56/9 28/49/9 27/32/9
f 14/56/9 16/53/9 25/46/9 28/49/9
usemtl Glass
f 12/54/9 16/53/9 14/56/9 10/55/9
